<svg width="156" height="80" viewBox="0 0 156 80" fill="none" xmlns="http://www.w3.org/2000/svg">
<path d="M18.9991 20.3284C22.0624 15.3179 27.6098 13.8663 27.6098 13.8663C27.6098 13.8663 17.0224 11.091 17.0224 0C17.0224 11.091 6.42881 13.8663 6.42881 13.8663C6.42881 13.8663 11.9783 15.3179 15.0436 20.3284H0.570312V39.5371L3.86073 33.5885H10.4395V66.7399L23.5991 80V39.4093C20.2432 37.8505 15.4222 33.8875 13.6951 30.8647C16.6438 31.7616 20.5993 32.9411 23.6789 33.5906H33.4704V20.3284H18.9991Z" fill="white"/>
<g clip-path="url(#clip0_2160_6480)">
<path fill-rule="evenodd" clip-rule="evenodd" d="M92.1897 38.8925C93.8935 36.5639 96.5434 35.2877 99.7233 35.2877H99.7272C105.855 35.2877 110.135 39.9173 110.135 46.3532C110.135 52.7891 105.726 57.458 99.6448 57.458C96.3942 57.458 93.8071 56.2446 92.1269 53.9397L92.0169 56.9436H87.3727V27.234H92.1897V38.8925ZM99.3857 53.3899C103.115 53.3899 105.718 50.5548 105.718 46.4985C105.718 42.348 103.402 39.5639 99.6251 39.5639C95.8485 39.5639 93.2104 42.3126 93.2104 46.4985C93.2104 50.6844 95.6562 53.3899 99.3857 53.3899ZM58.6712 52.7027C57.4778 53.6137 56.5277 53.9671 55.2754 53.9671C53.4303 53.9671 52.3703 52.8441 52.3703 50.8807V39.7995H60.112V35.5351H52.3703V29.9984H47.5534V35.5312H44.2047L43.1133 39.7956H47.5534V50.92C47.5534 55.7695 50.1326 58.4397 54.82 58.4397C56.9596 58.4397 58.8675 57.78 60.6459 56.4213L60.7755 56.3232L58.8597 52.5574L58.6712 52.6988V52.7027ZM72.7374 35.1189C66.5778 35.1189 62.1102 39.7917 62.1102 46.2276C62.1102 53.0012 66.3619 57.3756 72.9376 57.3756C76.6946 57.3756 79.5015 56.229 81.7628 53.7669L81.8805 53.6412L79.3249 50.5588L79.1717 50.708C77.4091 52.4318 75.5875 53.2014 73.2556 53.2014C69.5967 53.2014 67.3472 51.1949 66.9036 47.5391H82.7285V47.3428C82.7285 47.1464 82.7364 46.9619 82.7481 46.7773C82.7599 46.5849 82.7678 46.3925 82.7678 46.1883C82.7678 39.4658 78.8302 35.1189 72.7374 35.1189ZM67.0018 44.382C67.6142 41.3231 69.8283 39.3597 72.6981 39.3597C75.5679 39.3597 77.5072 41.1857 77.9312 44.382H67.0018ZM123.207 35.1189C117.048 35.1189 112.58 39.7917 112.58 46.2276C112.58 53.0012 116.832 57.3756 123.408 57.3756C127.165 57.3756 129.972 56.229 132.233 53.7669L132.351 53.6412L129.795 50.5588L129.642 50.708C127.879 52.4318 126.058 53.2014 123.726 53.2014C120.067 53.2014 117.817 51.1949 117.374 47.5391H133.199V47.3428C133.199 47.1464 133.206 46.9619 133.218 46.7773C133.23 46.5849 133.238 46.3925 133.238 46.1883C133.238 39.4658 129.3 35.1189 123.207 35.1189ZM123.168 39.3558C126.081 39.3558 127.977 41.1817 128.401 44.3781H117.472C118.084 41.3192 120.298 39.3558 123.168 39.3558ZM154.213 35.5312L146.743 45.7132L155.057 56.9436H149.334L143.963 49.2786L138.71 56.9436H133.269L141.301 45.9959L133.63 35.5312H139.354L144.081 42.505L148.768 35.5312H154.213Z" fill="white"/>
</g>
<defs>
<clipPath id="clip0_2160_6480">
<rect width="111.944" height="31.2057" fill="white" transform="translate(43.1133 27.234)"/>
</clipPath>
</defs>
</svg>
